# xmcd CD database file
#
# Track frame offsets:
#	150
#	17585
#	36322
#	52018
#	71582
#	86830
#	104571
#	122730
#	140312
#	153674
#	170959
#	191440
#	208406
#	225706
#	245704
#	260737
#	278871
#
# Disc length: 4034 seconds
#
# Revision: 0
# Processed by: cddbd v1.5.1PL0 Copyright (c) Steve Scherf et al.
# Submitted via: CDex 1.51
#
DISCID=0c0fc011
DTITLE=新田恵利 - BEST2
DYEAR=2003
DGENRE=Pop
TTITLE0=冬のオペラグラス
TTITLE1=恋のロープをほどかないで
TTITLE2=不思議な手品のように
TTITLE3=内緒で浪漫映画（ラブ・ストーリー）
TTITLE4=若草の招待状
TTITLE5=サーカス・ロマンス
TTITLE6=デジャ・ヴ
TTITLE7=WHO?
TTITLE8=ロックンロール・ラブレター
TTITLE9=さよならの風
TTITLE10=プロローグ−いいだせなくて−
TTITLE11=パナマのシャポー
TTITLE12=茅ヶ崎に背を向けて
TTITLE13=彼をあきらめて
TTITLE14=夏の恋風
TTITLE15=恋のミスマッチ
TTITLE16=テディベアの頃−少女の香り−（Single Version）
EXTD=YEAR: 2003
EXTT0=
EXTT1=
EXTT2=
EXTT3=
EXTT4=
EXTT5=
EXTT6=
EXTT7=
EXTT8=
EXTT9=
EXTT10=
EXTT11=
EXTT12=
EXTT13=
EXTT14=
EXTT15=
EXTT16=
PLAYORDER=
